<svg width="100" height="180" viewBox="0 0 1200 344" fill="none" xmlns="http://www.w3.org/2000/svg">
<g id="OFFICIAL ICON">
<path id="A" d="M242.06 287.48L120.25 288L101.46 342.93L0 343.34L133.54 5.08996L226.08 4.70996L365.49 341.82L261.24 342.25L242.06 287.48ZM180.2 110.3L143 215.1L218.65 214.78L180.2 110.3Z" fill="#00053B"/>
<path id="I" d="M729.48 2.61021L825.41 2.22021L826.86 339.9L730.93 340.3L729.48 2.61021Z" fill="#00053B"/>
<path id="N" d="M1198.54 0.660156L1200 338.34L1121.7 338.67L984.38 156L985.17 339.26L893.43 339.64L892 1.94016L974.87 1.59015L1107.59 178.21L1106.8 1.00015L1198.54 0.660156Z" fill="#00053B"/>
<path id="k" d="M396.1 5H491.93V341.67H396.1V5Z" fill="#00053B"/>
<g id="K-1">
<path id="Vector" d="M718.69 5.57031H629.69C629.69 5.57031 612.45 7.02032 604.69 18.6903C596.93 30.3603 479.19 173 479.19 173L530.86 236.54L718.69 5.57031Z" fill="#FF7000"/>
<path id="Vector_2" d="M576.54 54.21C576.54 54.21 534.06 111.48 582.54 173.03C631.02 234.58 718.72 340.43 718.72 340.43H631.22C631.22 340.43 616 341.27 606 328.91L479.19 173L576.54 54.21Z" fill="#FF7000"/>
</g>
</g>
</svg>
