<svg xmlns="http://www.w3.org/2000/svg" viewBox="0 0 1200 500"><defs><style>.cls-1{fill:#00053b;}.cls-2{fill:#ff7000;}.cls-3{fill:#ff7e19;}</style></defs><title>Akin-name-logo</title><g id="AKIN_NEW_EDIT" data-name="AKIN NEW EDIT"><path class="cls-1" d="M249.18,366.33l-124.89.52L105,423.16,1,423.59,137.91,76.8l94.88-.39L375.72,422l-106.89.45ZM185.75,184.67,147.61,292.11l77.56-.32Z"/><path class="cls-1" d="M757.72,76.82l98.35-.41,1.49,346.77-98.35.41Z"/><path class="cls-1" d="M1197.51,76.41,1199,422.28l-80.28.34L977.94,235.5l.81,187.7-94.06.39-1.5-345.87,85-.36,136.08,180.9-.79-181.46Z"/><path class="cls-1" d="M401.36,76.41H499.6V423.59H401.36Z"/><path class="cls-2" d="M732.09,78.34l-91.27,0s-17.67,1.49-25.65,13.45S486.54,250,486.54,250l53,65.14Z"/><path class="cls-3" d="M586.35,128.2S542.79,186.91,592.47,250,732.09,421.65,732.09,421.65H642.38s-15.54.86-25.85-11.81L486.54,250Z"/></g></svg>