<svg width="42" height="36" viewBox="0 0 42 36" fill="none" xmlns="http://www.w3.org/2000/svg">
<path d="M42 18C40.8537 23.1585 38.4326 27.1764 33.964 30.5C30.6363 32.975 25.9504 35.5 21 35.5C16.8155 34.7189 12.7947 31.5267 8.46399 28.5C4.47793 25.7142 0 23 0 18C1.96399 13 5.99137 9.89552 9.46399 7C13.9238 3.28129 16.5022 0.562228 21 0C25.464 1 28.9285 2.61736 32.964 6C36.6519 9.09132 41.045 14.4187 42 18Z" fill="#090F3A"/>
<path d="M16.702 22.534C17.11 22.21 17.296 22.06 17.26 22.084C18.436 21.112 19.36 20.314 20.032 19.69C20.716 19.066 21.292 18.412 21.76 17.728C22.228 17.044 22.462 16.378 22.462 15.73C22.462 15.238 22.348 14.854 22.12 14.578C21.892 14.302 21.55 14.164 21.094 14.164C20.638 14.164 20.278 14.338 20.014 14.686C19.762 15.022 19.636 15.502 19.636 16.126H16.666C16.69 15.106 16.906 14.254 17.314 13.57C17.734 12.886 18.28 12.382 18.952 12.058C19.636 11.734 20.392 11.572 21.22 11.572C22.648 11.572 23.722 11.938 24.442 12.67C25.174 13.402 25.54 14.356 25.54 15.532C25.54 16.816 25.102 18.01 24.226 19.114C23.35 20.206 22.234 21.274 20.878 22.318L25.738 22.318V24.82L16.702 24.82V22.534Z" fill="white"/>
</svg>
