<svg width="42" height="36" viewBox="0 0 42 36" fill="none" xmlns="http://www.w3.org/2000/svg">
<path d="M42 18C40.8537 23.1585 38.4326 27.1764 33.964 30.5C30.6363 32.975 25.9504 35.5 21 35.5C16.8155 34.7189 12.7947 31.5267 8.46399 28.5C4.47793 25.7142 0 23 0 18C1.96399 13 5.99137 9.89552 9.46399 7C13.9238 3.28129 16.5022 0.562228 21 0C25.464 1 28.9285 2.61736 32.964 6C36.6519 9.09132 41.045 14.4187 42 18Z" fill="#090F3A"/>
<path d="M15.918 15.568C15.966 14.284 16.386 13.294 17.178 12.598C17.97 11.902 19.044 11.554 20.4 11.554C21.3 11.554 22.068 11.71 22.704 12.022C23.352 12.334 23.838 12.76 24.162 13.3C24.498 13.84 24.666 14.446 24.666 15.118C24.666 15.91 24.468 16.558 24.072 17.062C23.676 17.554 23.214 17.89 22.686 18.07V18.142C23.37 18.37 23.91 18.748 24.306 19.276C24.702 19.804 24.9 20.482 24.9 21.31C24.9 22.054 24.726 22.714 24.378 23.29C24.042 23.854 23.544 24.298 22.884 24.622C22.236 24.946 21.462 25.108 20.562 25.108C19.122 25.108 17.97 24.754 17.106 24.046C16.254 23.338 15.804 22.27 15.756 20.842H18.744C18.756 21.37 18.906 21.79 19.194 22.102C19.482 22.402 19.902 22.552 20.454 22.552C20.922 22.552 21.282 22.42 21.534 22.156C21.798 21.88 21.93 21.52 21.93 21.076C21.93 20.5 21.744 20.086 21.372 19.834C21.012 19.57 20.43 19.438 19.626 19.438H19.05V16.936H19.626C20.238 16.936 20.73 16.834 21.102 16.63C21.486 16.414 21.678 16.036 21.678 15.496C21.678 15.064 21.558 14.728 21.318 14.488C21.078 14.248 20.748 14.128 20.328 14.128C19.872 14.128 19.53 14.266 19.302 14.542C19.086 14.818 18.96 15.16 18.924 15.568H15.918Z" fill="white"/>
</svg>
