<svg width="42" height="36" viewBox="0 0 42 36" fill="none" xmlns="http://www.w3.org/2000/svg">
<path d="M42 18C40.8537 23.1585 38.4326 27.1764 33.964 30.5C30.6363 32.975 25.9504 35.5 21 35.5C16.8155 34.7189 12.7947 31.5267 8.46399 28.5C4.47793 25.7142 0 23 0 18C1.96399 13 5.99138 9.89552 9.46399 7C13.9238 3.28129 16.5022 0.562228 21 0C25.464 1 28.9285 2.61736 32.964 6C36.6519 9.09133 41.045 14.4187 42 18Z" fill="#090F3A"/>
<path d="M18.486 14.722V11.86L23.472 11.86V25H20.268V14.722H18.486Z" fill="white"/>
</svg>
