<svg width="512" height="512" viewBox="0 0 512 512" fill="none" xmlns="http://www.w3.org/2000/svg">
<g clip-path="url(#clip0_104_2)">
<path d="M490.667 320H476.437C471.104 320 465.813 320.405 460.544 321.216L310.229 208.491L346.24 174.016C354.752 165.867 355.051 152.341 346.901 143.851C338.731 135.339 325.205 135.061 316.736 143.189L227.712 228.416C223.275 232.853 217.237 235.136 210.901 234.603C204.544 234.091 198.955 230.869 195.136 225.536C189.291 217.429 191.083 204.736 198.72 197.077L299.051 102.592C318.059 84.736 347.776 80.3627 371.029 92.032L420.437 116.736C435.157 124.096 451.669 127.979 468.117 127.979H490.645C502.443 127.979 511.979 118.443 511.979 106.645C511.979 94.848 502.443 85.312 490.645 85.312H468.117C458.24 85.312 448.32 82.9867 439.488 78.5707L390.123 53.8667C351.211 34.3893 301.525 41.6213 269.781 71.5307L256.597 83.9467L241.664 70.336C222.059 52.48 196.672 42.6453 169.344 42.6453C152.896 42.6453 136.491 46.528 121.835 53.8453L72.4692 78.5493C63.6159 82.9653 53.6959 85.2907 43.8185 85.2907H21.3332C9.53585 85.2907 -0.000151038 94.8267 -0.000151038 106.624C-0.000151038 118.421 9.53585 127.957 21.3332 127.957H43.8612C60.3092 127.957 76.8212 124.053 91.5625 116.715L140.971 92.0107C162.773 81.0453 193.408 84.0107 212.949 101.867L225.472 113.28L169.024 166.443C146.133 189.312 142.485 225.472 160.533 250.453C171.627 265.877 193.664 277.312 212.672 277.312C229.589 277.312 245.824 270.656 257.557 258.901L279.019 238.357L414.4 339.883C413.739 340.352 282.176 438.997 282.176 438.997C266.752 450.987 245.227 450.987 229.483 438.763L99.5412 341.312C81.2159 327.552 58.4745 319.979 35.5412 319.979H21.3119C9.51452 319.979 -0.0214844 329.515 -0.0214844 341.312C-0.0214844 353.109 9.51452 362.645 21.3119 362.645H35.5412C49.3012 362.645 62.9332 367.189 73.9412 375.445L203.584 472.683C219.051 484.715 237.589 490.731 256.085 490.731C274.475 490.731 292.843 484.779 308.075 472.917L438.059 375.467C449.045 367.211 462.677 362.667 476.437 362.667H490.667C502.464 362.667 512 353.131 512 341.333C512 329.536 502.464 320 490.667 320Z" fill="#00A9FA"/>
</g>
<defs>
<clipPath id="clip0_104_2">
<rect width="512" height="512" fill="white"/>
</clipPath>
</defs>
</svg>
