<svg width="40" height="40" viewBox="0 0 40 40" fill="none" xmlns="http://www.w3.org/2000/svg">
<g clip-path="url(#clip0_786_34)">
<path d="M9.69291 25.2996C9.45734 26.0072 9.64169 26.7705 10.1739 27.3027L12.588 29.7168L12.6804 29.8092C13.2018 30.259 13.9102 30.4119 14.558 30.2037L9.69291 25.2996ZM9.69291 25.2996C9.9263 24.6072 10.2375 23.7046 10.611 22.6698L10.8527 22H10.1407H1.87508C1.3815 22 0.922416 21.7358 0.676028 21.306C0.430228 20.8773 0.435671 20.3513 0.687656 19.9275L0.687916 19.927L4.7894 13.0131C4.78943 13.013 4.78945 13.013 4.78948 13.013C5.71532 11.4534 7.38808 10.5 9.19539 10.5H15.6251H15.9082L16.0538 10.2573C16.2353 9.95476 16.4177 9.67342 16.6026 9.39613C22.843 0.193316 32.1247 -0.123004 37.7142 0.905849L37.7157 0.90611C38.4132 1.03239 38.9599 1.58034 39.0945 2.28711C40.1231 7.88474 39.7984 17.1587 30.6021 23.3988L30.6001 23.4002C30.3373 23.5804 30.0494 23.7624 29.7428 23.9463L29.5001 24.092V24.375V30.8047C29.5001 32.6132 28.5459 34.2925 26.9885 35.2099L26.9872 35.2106L20.0731 39.3122L20.0727 39.3125C19.6489 39.5644 19.1228 39.5699 18.6941 39.3241C18.2633 39.0771 18.0001 38.6253 18.0001 38.125V29.75V29.047L17.3359 29.2778C16.24 29.6586 15.2834 29.9697 14.558 30.2037L9.69291 25.2996ZM30.0001 13.625C30.9615 13.625 31.8835 13.2431 32.5633 12.5633C33.2432 11.8835 33.6251 10.9615 33.6251 10C33.6251 9.03864 33.2432 8.1166 32.5633 7.43678C31.8835 6.75696 30.9615 6.37504 30.0001 6.37504C29.0387 6.37504 28.1166 6.75696 27.4368 7.43678C26.757 8.1166 26.3751 9.03864 26.3751 10C26.3751 10.9615 26.757 11.8835 27.4368 12.5633C28.1166 13.2431 29.0387 13.625 30.0001 13.625Z" fill="#F06E30" stroke="black"/>
</g>
<defs>
<clipPath id="clip0_786_34">
<rect width="40" height="40" fill="white"/>
</clipPath>
</defs>
</svg>
