<svg width="512" height="512" viewBox="0 0 512 512" fill="none" xmlns="http://www.w3.org/2000/svg">
<g clip-path="url(#clip0_104_10)">
<path d="M424.533 65.9413C421.91 54.6699 417.022 44.0498 410.166 34.7268C403.31 25.4039 394.629 17.5729 384.652 11.7101C374.674 5.84724 363.608 2.07515 352.127 0.623179C340.646 -0.828795 328.99 0.0696891 317.867 3.26399L281.088 13.7813C271.771 16.4591 263.19 21.2313 256 27.7333C248.81 21.2313 240.229 16.4591 230.912 13.7813L194.133 3.26399C183.017 0.0863377 171.371 -0.799338 159.903 0.660724C148.434 2.12079 137.381 5.89613 127.416 11.7576C117.451 17.6191 108.781 25.4444 101.932 34.7587C95.0825 44.0729 90.1976 54.6818 87.5733 65.9413C63.0357 70.4056 40.8381 83.3271 24.8391 102.46C8.84005 121.592 0.0511143 145.726 0 170.667L0 320C0.0338743 348.279 11.2828 375.391 31.2794 395.387C51.2759 415.384 78.3873 426.633 106.667 426.667H234.667V469.333H170.667C165.009 469.333 159.583 471.581 155.582 475.582C151.581 479.582 149.333 485.009 149.333 490.667C149.333 496.325 151.581 501.751 155.582 505.752C159.583 509.752 165.009 512 170.667 512H341.333C346.991 512 352.418 509.752 356.418 505.752C360.419 501.751 362.667 496.325 362.667 490.667C362.667 485.009 360.419 479.582 356.418 475.582C352.418 471.581 346.991 469.333 341.333 469.333H277.333V426.667H405.333C433.613 426.633 460.724 415.384 480.721 395.387C500.717 375.391 511.966 348.279 512 320V170.667C511.953 145.742 503.18 121.62 487.202 102.489C471.224 83.3588 449.051 70.4278 424.533 65.9413V65.9413ZM277.333 75.328C277.335 70.6947 278.846 66.1881 281.636 62.4893C284.427 58.7906 288.345 56.1008 292.8 54.8267L329.6 44.3093C335.951 42.4929 342.636 42.1757 349.13 43.3827C355.624 44.5897 361.749 47.288 367.023 51.2651C372.297 55.2421 376.575 60.3892 379.521 66.3011C382.467 72.213 384 78.7281 384 85.3333V169.344C383.97 178.602 380.94 187.6 375.362 194.989C369.785 202.378 361.962 207.759 353.067 210.325L277.333 231.957V75.328ZM145.067 51.2C150.33 47.2374 156.443 44.5523 162.922 43.3564C169.401 42.1606 176.069 42.4868 182.4 44.3093L219.2 54.8267C223.655 56.1008 227.573 58.7906 230.364 62.4893C233.154 66.1881 234.665 70.6947 234.667 75.328V231.957L158.933 210.325C150.038 207.759 142.215 202.378 136.638 194.989C131.06 187.6 128.03 178.602 128 169.344V85.3333C127.978 78.7057 129.511 72.1654 132.475 66.2375C135.439 60.3095 139.752 55.1592 145.067 51.2V51.2ZM469.333 320C469.333 336.974 462.591 353.253 450.588 365.255C438.586 377.257 422.307 384 405.333 384H106.667C89.6928 384 73.4142 377.257 61.4118 365.255C49.4095 353.253 42.6667 336.974 42.6667 320V170.667C42.7213 157.477 46.8498 144.627 54.4872 133.873C62.1246 123.12 72.898 114.988 85.3333 110.592V169.344C85.3856 187.869 91.4436 205.877 102.598 220.666C113.753 235.456 129.403 246.23 147.2 251.371L220.821 272.427C243.83 278.985 268.213 278.985 291.221 272.427L364.843 251.371C382.632 246.222 398.272 235.445 409.419 220.656C420.565 205.867 426.617 187.863 426.667 169.344V110.592C439.102 114.988 449.875 123.12 457.513 133.873C465.15 144.627 469.279 157.477 469.333 170.667V320Z" fill="#00A9FA"/>
</g>
<defs>
<clipPath id="clip0_104_10">
<rect width="512" height="512" fill="white"/>
</clipPath>
</defs>
</svg>
