<svg width="43" height="43" viewBox="0 0 43 43" fill="none" xmlns="http://www.w3.org/2000/svg">
<g clip-path="url(#clip0_786_30)">
<path d="M31.1742 27.4789L30.9221 27.8245L31.2244 28.127L41.8569 38.7679L41.857 38.768C42.7115 39.6225 42.7115 41.0108 41.857 41.8654C41.0025 42.7199 39.6143 42.7199 38.7597 41.8655C38.7597 41.8655 38.7597 41.8654 38.7596 41.8654L28.1273 31.2247L27.8242 30.9213L27.4782 31.1748C24.6723 33.2302 21.2143 34.4375 17.4688 34.4375C8.09509 34.4375 0.5 26.8424 0.5 17.4688C0.5 8.09509 8.09509 0.5 17.4688 0.5C26.8424 0.5 34.4375 8.09509 34.4375 17.4688C34.4375 21.2136 33.2222 24.6721 31.1742 27.4789ZM17.4688 30.0625C19.1226 30.0625 20.7602 29.7368 22.2882 29.1039C23.8161 28.471 25.2044 27.5433 26.3739 26.3739C27.5433 25.2044 28.471 23.8161 29.1039 22.2882C29.7368 20.7602 30.0625 19.1226 30.0625 17.4688C30.0625 15.8149 29.7368 14.1773 29.1039 12.6493C28.471 11.1214 27.5433 9.73306 26.3739 8.56362C25.2044 7.39419 23.8161 6.46654 22.2882 5.83364C20.7602 5.20075 19.1226 4.875 17.4688 4.875C15.8149 4.875 14.1773 5.20075 12.6493 5.83364C11.1214 6.46654 9.73306 7.39419 8.56362 8.56362C7.39419 9.73306 6.46654 11.1214 5.83364 12.6493C5.20075 14.1773 4.875 15.8149 4.875 17.4688C4.875 19.1226 5.20075 20.7602 5.83364 22.2882C6.46654 23.8161 7.39419 25.2044 8.56362 26.3739C9.73306 27.5433 11.1214 28.471 12.6493 29.1039C14.1773 29.7368 15.8149 30.0625 17.4688 30.0625Z" fill="#F06E30" stroke="black"/>
</g>
<defs>
<clipPath id="clip0_786_30">
<rect width="43" height="43" fill="white"/>
</clipPath>
</defs>
</svg>
