<svg width="512" height="512" viewBox="0 0 512 512" fill="none" xmlns="http://www.w3.org/2000/svg">
<g clip-path="url(#clip0_104_4)">
<path d="M191.253 512H85.3333C62.7015 512 40.9967 503.01 24.9936 487.006C8.99045 471.003 0 449.298 0 426.667V320C0 297.368 8.99045 275.663 24.9936 259.66C40.9967 243.657 62.7015 234.667 85.3333 234.667H274.283C285.828 234.672 297.177 237.658 307.231 243.335C317.284 249.012 325.702 257.188 331.669 267.072L400.299 191.659C405.975 185.416 412.826 180.354 420.461 176.761C428.095 173.168 436.362 171.114 444.79 170.718C453.219 170.322 461.642 171.59 469.58 174.451C477.517 177.312 484.813 181.71 491.051 187.392C503.496 198.825 510.954 214.688 511.82 231.565C512.686 248.443 506.89 264.985 495.68 277.632L350.613 440.555C330.584 463.019 306.033 480.997 278.569 493.309C251.106 505.622 221.35 511.991 191.253 512ZM85.3333 277.333C74.0174 277.333 63.165 281.829 55.1634 289.83C47.1619 297.832 42.6667 308.684 42.6667 320V426.667C42.6667 437.983 47.1619 448.835 55.1634 456.837C63.165 464.838 74.0174 469.333 85.3333 469.333H191.253C215.316 469.324 239.104 464.229 261.06 454.384C283.016 444.538 302.644 430.164 318.656 412.203L463.829 249.259C467.599 245.013 469.55 239.457 469.262 233.787C468.975 228.117 466.472 222.787 462.293 218.944C458.044 215.124 452.472 213.111 446.763 213.333C443.932 213.453 441.154 214.135 438.59 215.34C436.026 216.545 433.728 218.249 431.829 220.352L337.408 324.267C333.263 335.739 326.08 345.871 316.627 353.581C307.174 361.29 295.805 366.289 283.733 368.043L173.632 383.787C168.031 384.59 162.34 383.136 157.811 379.743C153.282 376.35 150.286 371.297 149.483 365.696C148.679 360.095 150.134 354.404 153.527 349.875C156.919 345.346 161.972 342.35 167.573 341.547L277.696 325.824C283.809 324.969 289.369 321.827 293.254 317.03C297.139 312.234 299.059 306.142 298.625 299.985C298.192 293.828 295.438 288.065 290.919 283.861C286.401 279.656 280.455 277.323 274.283 277.333H85.3333ZM234.667 193.579C224.998 193.605 215.61 190.323 208.064 184.277C171.541 154.965 128 110.933 128 68.2667C127.476 50.7385 133.915 33.7162 145.909 20.923C157.903 8.12978 174.474 0.60698 192 0C207.943 0.0620976 223.24 6.31078 234.667 17.4293C246.093 6.31078 261.39 0.0620976 277.333 0C294.859 0.60698 311.431 8.12978 323.424 20.923C335.418 33.7162 341.857 50.7385 341.333 68.2667C341.333 110.933 297.792 154.965 261.248 184.299C253.704 190.332 244.326 193.606 234.667 193.579V193.579ZM192 42.6667C185.799 43.2888 180.091 46.3194 176.101 51.1066C172.112 55.8939 170.16 62.0556 170.667 68.2667C170.667 87.4667 195.221 119.253 234.795 151.019C274.112 119.253 298.667 87.4667 298.667 68.2667C299.173 62.0556 297.221 55.8939 293.232 51.1066C289.243 46.3194 283.534 43.2888 277.333 42.6667C271.133 43.2888 265.424 46.3194 261.435 51.1066C257.445 55.8939 255.494 62.0556 256 68.2667C256 73.9246 253.752 79.3508 249.752 83.3516C245.751 87.3524 240.325 89.6 234.667 89.6C229.009 89.6 223.583 87.3524 219.582 83.3516C215.581 79.3508 213.333 73.9246 213.333 68.2667C213.84 62.0556 211.888 55.8939 207.899 51.1066C203.909 46.3194 198.201 43.2888 192 42.6667V42.6667Z" fill="#00A9FA"/>
</g>
<defs>
<clipPath id="clip0_104_4">
<rect width="512" height="512" fill="white"/>
</clipPath>
</defs>
</svg>
