<svg width="35" height="40" viewBox="0 0 35 40" fill="none" xmlns="http://www.w3.org/2000/svg">
<g clip-path="url(#clip0_786_32)">
<path d="M8.5507 11.518L8.25 11.6487V11.9766V18.8359V19.7038L9.00079 19.2685C10.3946 18.4604 12.0193 18 13.75 18H21.25C24.284 18 26.75 15.534 26.75 12.5V11.9766V11.6487L26.4493 11.518C24.4152 10.6339 23 8.60721 23 6.25C23 3.07302 25.573 0.5 28.75 0.5C31.927 0.5 34.5 3.07302 34.5 6.25C34.5 8.60721 33.0848 10.6339 31.0507 11.518L30.75 11.6487V11.9766V12.5C30.75 17.7473 26.4973 22 21.25 22H13.75C10.716 22 8.25 24.466 8.25 27.5V28.0234V28.3513L8.5507 28.482C10.5848 29.3661 12 31.3928 12 33.75C12 36.927 9.42698 39.5 6.25 39.5C3.07302 39.5 0.5 36.927 0.5 33.75C0.5 31.3928 1.91519 29.3661 3.9493 28.482L4.25 28.3513V28.0234V27.5V11.9766V11.6487L3.9493 11.518C1.91519 10.6339 0.5 8.60721 0.5 6.25C0.5 3.07302 3.07302 0.5 6.25 0.5C9.42698 0.5 12 3.07302 12 6.25C12 8.60721 10.5848 10.6339 8.5507 11.518ZM6.25 8.625C6.87989 8.625 7.48398 8.37478 7.92938 7.92938C8.37478 7.48398 8.625 6.87989 8.625 6.25C8.625 5.62011 8.37478 5.01602 7.92938 4.57062C7.48398 4.12522 6.87989 3.875 6.25 3.875C5.62011 3.875 5.01602 4.12522 4.57062 4.57062C4.12522 5.01602 3.875 5.62011 3.875 6.25C3.875 6.87989 4.12522 7.48398 4.57062 7.92938C5.01602 8.37478 5.62011 8.625 6.25 8.625ZM31.125 6.25C31.125 5.62011 30.8748 5.01602 30.4294 4.57062C29.984 4.12522 29.3799 3.875 28.75 3.875C28.1201 3.875 27.516 4.12522 27.0706 4.57062C26.6252 5.01602 26.375 5.62011 26.375 6.25C26.375 6.87989 26.6252 7.48398 27.0706 7.92938C27.516 8.37478 28.1201 8.625 28.75 8.625C29.3799 8.625 29.984 8.37478 30.4294 7.92938C30.8748 7.48398 31.125 6.87989 31.125 6.25ZM6.25 36.125C6.87989 36.125 7.48398 35.8748 7.92938 35.4294C8.37478 34.984 8.625 34.3799 8.625 33.75C8.625 33.1201 8.37478 32.516 7.92938 32.0706C7.48398 31.6252 6.87989 31.375 6.25 31.375C5.62011 31.375 5.01602 31.6252 4.57062 32.0706C4.12522 32.516 3.875 33.1201 3.875 33.75C3.875 34.3799 4.12522 34.984 4.57062 35.4294C5.01602 35.8748 5.62011 36.125 6.25 36.125Z" fill="#F06E30" stroke="black"/>
</g>
<defs>
<clipPath id="clip0_786_32">
<rect width="35" height="40" fill="white"/>
</clipPath>
</defs>
</svg>
